<?xml version="1.0" encoding="UTF-8" standalone="no"?>
<!-- Created with Inkscape (http://www.inkscape.org/) -->

<svg
   version="1.1"
   id="svg1656"
   xml:space="preserve"
   width="1280"
   height="720"
   viewBox="0 0 1280 720"
   sodipodi:docname="TSN_components.svg"
   inkscape:version="1.1.1 (3bf5ae0d25, 2021-09-20)"
   xmlns:inkscape="http://www.inkscape.org/namespaces/inkscape"
   xmlns:sodipodi="http://sodipodi.sourceforge.net/DTD/sodipodi-0.dtd"
   xmlns="http://www.w3.org/2000/svg"
   xmlns:svg="http://www.w3.org/2000/svg"><defs
     id="defs1660"><clipPath
       clipPathUnits="userSpaceOnUse"
       id="clipPath1688"><path
         d="M 0,0 H 960 V 540 H 0 Z"
         id="path1686" /></clipPath><clipPath
       clipPathUnits="userSpaceOnUse"
       id="clipPath1822"><path
         d="M 0,0 H 960 V 540 H 0 Z"
         id="path1820" /></clipPath><clipPath
       clipPathUnits="userSpaceOnUse"
       id="clipPath1888"><path
         d="M 0,0 H 960 V 540 H 0 Z"
         id="path1886" /></clipPath><clipPath
       clipPathUnits="userSpaceOnUse"
       id="clipPath1908"><path
         d="M 0,0 H 960 V 540 H 0 Z"
         id="path1906" /></clipPath></defs><sodipodi:namedview
     id="namedview1658"
     pagecolor="#ffffff"
     bordercolor="#666666"
     borderopacity="1.0"
     inkscape:pageshadow="2"
     inkscape:pageopacity="0.0"
     inkscape:pagecheckerboard="0"
     showgrid="false"
     inkscape:zoom="0.52460938"
     inkscape:cx="608.07148"
     inkscape:cy="248.75652"
     inkscape:window-width="1920"
     inkscape:window-height="1001"
     inkscape:window-x="-9"
     inkscape:window-y="-9"
     inkscape:window-maximized="1"
     inkscape:current-layer="g1662" /><g
     id="g1662"
     inkscape:groupmode="layer"
     inkscape:label="TSN_components"
     transform="matrix(1.3333333,0,0,-1.3333333,0,720)"><path
       d="M 0,0 H 960 V 540 H 0 Z"
       style="fill:#ffffff;fill-opacity:1;fill-rule:nonzero;stroke:none"
       id="path1664" /><text
       transform="matrix(1,0,0,-1,891.5439,10.295)"
       style="font-variant:normal;font-weight:normal;font-stretch:normal;font-size:12px;font-family:Calibri;-inkscape-font-specification:Calibri;writing-mode:lr-tb;fill:#898989;fill-opacity:1;fill-rule:nonzero;stroke:none"
       id="text1668"><tspan
         x="0 6.1199999 12.24 16.92 23.040001 29.16 33.84 39.959999 46.080002 52.200001"
         y="0"
         sodipodi:role="line"
         id="tspan1666">11/16/2021</tspan></text><path
       d="M 0,30.72 H 960 V 429.361 H 0 Z"
       style="fill:#ebf2d9;fill-opacity:1;fill-rule:nonzero;stroke:none"
       id="path1670" /><text
       transform="matrix(1,0,0,-1,380.2074,399.6498)"
       style="font-variant:normal;font-weight:bold;font-stretch:normal;font-size:27.96px;font-family:Calibri;-inkscape-font-specification:Calibri-Bold;writing-mode:lr-tb;fill:#00285f;fill-opacity:1;fill-rule:nonzero;stroke:none"
       id="text1674"><tspan
         x="0 13.81224 27.009359 45.367897 51.966457 66.72934 81.729874 104.52846 119.51502 134.51556 149.50212 163.53804 178.5246 188.24629"
         y="0"
         sodipodi:role="line"
         id="tspan1672">TSN Components</tspan></text><text
       transform="matrix(1,0,0,-1,387.1674,375.4098)"
       style="font-variant:normal;font-weight:normal;font-stretch:normal;font-size:18px;font-family:Calibri;-inkscape-font-specification:Calibri;writing-mode:lr-tb;fill:#ffffff;fill-opacity:1;fill-rule:nonzero;stroke:none"
       id="text1680"><tspan
         x="0 5.4000001 14.1606 23.641199 33.119999 37.2006 44.279999 48.481201 57.9618 63.480598 67.681801 73.681198 83.161797 92.161797 96.247803 105.0066 113.2866 124.9272 129.0132 135.0126 144.49319 153.9738 158.0544 165.1338 174.1338 180.13319"
         y="0"
         sodipodi:role="line"
         id="tspan1676">(Tools of the TSN toolset)</tspan><tspan
         x="507.92401"
         y="267.28201"
         id="tspan1678">1</tspan></text><g
       id="g1682"><g
         id="g1684"
         clip-path="url(#clipPath1688)"><g
           id="g1690"
           transform="translate(280.92,250.56)"><path
             d="m 0,0 c 0,14.116 38.763,25.56 86.58,25.56 47.817,0 86.58,-11.444 86.58,-25.56 0,-14.116 -38.763,-25.56 -86.58,-25.56 C 38.763,-25.56 0,-14.116 0,0"
             style="fill:#00285f;fill-opacity:1;fill-rule:evenodd;stroke:none"
             id="path1692" /></g><g
           id="g1694"
           transform="translate(280.92,250.56)"><path
             d="m 0,0 c 0,14.116 38.763,25.56 86.58,25.56 47.817,0 86.58,-11.444 86.58,-25.56 0,-14.116 -38.763,-25.56 -86.58,-25.56 C 38.763,-25.56 0,-14.116 0,0 Z"
             style="fill:none;stroke:#181818;stroke-width:1;stroke-linecap:butt;stroke-linejoin:round;stroke-miterlimit:10;stroke-dasharray:none;stroke-opacity:1"
             id="path1696" /></g></g></g><text
       transform="matrix(1,0,0,-1,339.2657,244.5681)"
       style="font-variant:normal;font-weight:normal;font-stretch:normal;font-size:18px;font-family:Calibri;-inkscape-font-specification:Calibri;writing-mode:lr-tb;fill:#ffffff;fill-opacity:1;fill-rule:nonzero;stroke:none"
       id="text1700"><tspan
         x="0 7.5599999 16.200001 22.1994 31.1994 40.68 48.240002"
         y="0"
         sodipodi:role="line"
         id="tspan1698">Latency</tspan></text><path
       d="M 277.02,228.06 H 5.34 V 88.62 h 271.68 z"
       style="fill:#ebf2d9;fill-opacity:1;fill-rule:evenodd;stroke:none"
       id="path1702" /><g
       id="g1704"
       transform="translate(276.8188,228.06)"><path
         d="M 0,0 V -139.44 Z"
         style="fill:none;stroke:#00285f;stroke-width:2.25;stroke-linecap:butt;stroke-linejoin:round;stroke-miterlimit:10;stroke-dasharray:none;stroke-opacity:1"
         id="path1706" /></g><g
       id="g1708"
       transform="translate(276.8188,183.8311)"><path
         d="M 0,0 46.591,0.59 58.934,40.413"
         style="fill:none;stroke:#00285f;stroke-width:2.25;stroke-linecap:butt;stroke-linejoin:round;stroke-miterlimit:10;stroke-dasharray:none;stroke-opacity:1"
         id="path1710" /></g><g
       id="g1712"
       transform="translate(337.5147,216.6307)"><path
         d="M 0,0 -1.762,7.613 -7.522,2.332"
         style="fill:none;stroke:#00285f;stroke-width:2.25;stroke-linecap:round;stroke-linejoin:miter;stroke-miterlimit:10;stroke-dasharray:none;stroke-opacity:1"
         id="path1714" /></g><text
       transform="matrix(1,0,0,-1,109.0182,211.1994)"
       style="font-variant:normal;font-weight:bold;font-stretch:normal;font-size:18px;font-family:Calibri;-inkscape-font-specification:Calibri-Bold;writing-mode:lr-tb;fill:#00285f;fill-opacity:1;fill-rule:nonzero;stroke:none"
       id="text1718"><tspan
         x="0 10.08 19.799999 29.52 39.240002 48.959999 57.959999 67.559402 71.639999 76.078796 85.6782 99.118797 102.8448 107.2836 116.1648 122.4036 131.5242 141.2442 148.8042 157.32359"
         y="0"
         sodipodi:role="line"
         id="tspan1716">Bounded low latency:</tspan></text><text
       transform="matrix(1,0,0,-1,90.0582,193.3194)"
       style="font-variant:normal;font-weight:normal;font-stretch:normal;font-size:14.04px;font-family:Calibri;-inkscape-font-specification:Calibri;writing-mode:lr-tb;fill:#7030a0;fill-opacity:1;fill-rule:nonzero;stroke:none"
       id="text1734"><tspan
         x="0 7.4411998 12.36222 19.321848 26.642303 29.881332 34.562267 37.922039 45.601921 52.322868 57.841991 64.803024 72.122078 75.238953 81.718414 89.038872 95.758415 103.07887 110.0385 114.95952 118.0764 122.39651 129.47267 136.54883 143.62498 147.22624 154.30241 163.78362 170.50316 176.86328 181.1834"
         y="0"
         sodipodi:role="line"
         id="tspan1720">Credit Based Shaper [802.1Qav] </tspan><tspan
         x="-53.155441 -46.67598 -41.754959 -35.035416 -23.873615 -16.913988 -13.909428 -6.7069082 -1.787292 5.1723361 12.131964 23.293764 30.608604 35.288136 38.528568 45.968365 53.283203 56.642975 60.961681 68.042053 75.122421 82.202797 85.80265 92.881622 102.36283 109.67767 116.99252 120.1122 129.71275 132.71732 139.79768 146.87805 153.95703 157.55688 164.63725 171.95209 176.8717"
         y="16.80588"
         sodipodi:role="line"
         id="tspan1722">Frame Preemption [802.1Qbu &amp; 802.3br]</tspan><tspan
         x="16.08984 22.5693 28.452061 35.766899 42.726528 50.041367 57.356209 60.595238 67.554863 74.869705 78.229477 85.069763 89.98938 96.710327 101.02903 105.34914 108.58957 114.47233 117.47689 121.797 128.87596 135.95634 143.03671 146.63657 153.71693 163.19675 170.51158 176.8717 181.19182"
         y="33.611759"
         sodipodi:role="line"
         id="tspan1724">Scheduled Traffic [802.1Qbv] </tspan><tspan
         x="-61.424999 -53.985203 -47.625084 -41.742325 -38.501892 -35.262863 -29.380104 -26.136864 -16.657057 -9.3422155 -2.3825879 4.9322519 8.1712799 15.48612 22.086325 25.329563 32.049107 39.363949 46.678787 49.922028 56.401489 63.841286 68.760902 78.841621 85.561165 90.482185 97.797028 101.03745 108.35229 114.9511 117.95145 122.27155 129.35193 136.43089 143.51126 147.11111 154.1915 163.6713 169.55406 176.8689 181.18901"
         y="50.417641"
         sodipodi:role="line"
         id="tspan1726">Cyclic Queuing and Forwarding [802.1Qch] </tspan><tspan
         x="-50.740559 -42.580513 -37.059982 -30.701267 -23.386429 -17.503668 -10.188828 -5.2692118 2.170584 9.485424 16.92522 24.240061 29.759184 32.878872 39.719158 44.638775 51.359722 55.679832 59.998535 63.238968 69.121727 72.126289 78.605751 85.920586 92.640129 99.954971 103.194 110.50884 117.10905 120.34948 124.66818 131.74855 138.82892 145.9093 149.50916 156.58812 166.06793 171.95068 176.8717"
         y="67.223518"
         sodipodi:role="line"
         id="tspan1728">Asynchronous Traffic Shaping [802.1Qcr]</tspan><tspan
         x="-45.826561 -39.347099 -32.032261 -25.312716 -17.997875 -11.038248 -6.117228 -3.0003481 4.2021718 10.921716 15.841332 22.562281 33.724079 40.685112 45.364643 52.324272 57.243889 60.484322 66.965187 73.924812 78.604347 83.283875 86.524307 93.839149 100.43935 105.95847 109.31824 113.63836 120.84087 127.92125 135.00162 142.08199 145.68185 152.76082 162.24063 169.55547 176.8703"
         y="84.029404"
         sodipodi:role="line"
         id="tspan1730">Shaper Parameter Settings [P802.1Qdq]</tspan><tspan
         x="29.891159 39.370968 46.810764 53.29163 56.169827 63.370945 68.290558 75.730354 82.090477 85.33091 90.850029 94.090462 101.53026 108.85072 114.37125 117.37159 121.6917 128.89142 135.96758 143.04373 150.11989 153.72115 160.79732 169.43753 176.87872"
         y="100.83528"
         sodipodi:role="line"
         id="tspan1732">QoS Provisions [P802.1DC]</tspan></text><path
       d="M 647.22,399.9 H 948.9 V 301.98 H 647.22 Z"
       style="fill:#ebf2d9;fill-opacity:1;fill-rule:evenodd;stroke:none"
       id="path1736" /><g
       id="g1738"
       transform="translate(645.6182,399.9001)"><path
         d="M 0,0 V -97.92 Z"
         style="fill:none;stroke:#00285f;stroke-width:2.25;stroke-linecap:butt;stroke-linejoin:round;stroke-miterlimit:10;stroke-dasharray:none;stroke-opacity:1"
         id="path1740" /></g><g
       id="g1742"
       transform="translate(645.6182,352.5174)"><path
         d="M 0,0 -33.23,-0.367 -55.825,-28.721"
         style="fill:none;stroke:#00285f;stroke-width:2.25;stroke-linecap:butt;stroke-linejoin:round;stroke-miterlimit:10;stroke-dasharray:none;stroke-opacity:1"
         id="path1744" /></g><g
       id="g1746"
       transform="translate(597.0786,326.6221)"><path
         d="m 0,0 -7.286,-2.825 1.127,7.733"
         style="fill:none;stroke:#00285f;stroke-width:2.25;stroke-linecap:round;stroke-linejoin:miter;stroke-miterlimit:10;stroke-dasharray:none;stroke-opacity:1"
         id="path1748" /></g><text
       transform="matrix(1,0,0,-1,652.8638,378.5959)"
       style="font-variant:normal;font-weight:bold;font-stretch:normal;font-size:18px;font-family:Calibri;-inkscape-font-specification:Calibri-Bold;writing-mode:lr-tb;fill:#00285f;fill-opacity:1;fill-rule:nonzero;stroke:none"
       id="text1752"><tspan
         x="0 11.3994 15.84 24.3594 34.079399 38.039398 46.920601 55.434601 64.314003 68.754601 73.195198 82.0746 91.794601 96.235199 100.5552 104.994 111.24 119.7594 123.4854 131.166 135.3654 147.1194 151.56 157.806 164.16541 173.0448 177.1254 183.4848 192.60539 197.04601 201.4848 210.366 220.086 224.5248 228.8448 233.2854 239.5314 248.0508"
         y="0"
         sodipodi:role="line"
         id="tspan1750">High availability / Ultra reliability:</tspan></text><text
       transform="matrix(1,0,0,-1,652.8638,360.7159)"
       style="font-variant:normal;font-weight:normal;font-stretch:normal;font-size:14.04px;font-family:Calibri;-inkscape-font-specification:Calibri;writing-mode:lr-tb;fill:#00285f;fill-opacity:1;fill-rule:nonzero;stroke:none"
       id="text1762"><tspan
         x="0 6.4794598 11.40048 18.120024 29.281824 36.241451 39.241798 46.92168 53.88131 61.196148 64.435173 67.675606 73.558365 80.277908 84.957443 88.197876 95.637672 102.95251 106.19576 112.9153 120.23013 127.54498 130.90475 137.74504 140.98547 144.2245 155.38629 158.62672 165.94157 172.66252 177.34204 180.58247 188.02228 195.33711 198.58035 202.90047 209.98083 217.0598 224.14018 227.74004 234.8204 242.26019 249.94008"
         y="0"
         sodipodi:role="line"
         id="tspan1754">Frame Replication and Elimination [802.1CB]</tspan><tspan
         x="0 7.2025199 13.923468 18.603001 25.917839 29.279016 36.718811 44.158607 51.47345 56.152981 61.072598 68.51239 71.752823 74.872513 81.592056 88.906898 96.221733 99.464973 107.14486 114.10589 119.62502 126.58464 131.50566 137.86578 144.58533 149.26486 152.50529 159.94508 167.25992 170.50316 174.82327 181.90364 188.98401 196.06299 199.66284 206.74321 216.22302 222.10577 228.82672"
         y="16.80588"
         sodipodi:role="line"
         id="tspan1756">Path Control and Reservation [802.1Qca]</tspan><tspan
         x="0 7.2025199 14.163552 19.08036 23.40468 29.88414 34.565075 39.484692 46.444321 53.163864 64.325661 67.326012 73.805473 77.045906 80.286339 84.965866 91.925499 96.845116 100.08554 107.40038 113.99918 117.24242 123.96337 131.27821 138.59305 141.83629 149.03882 156.47861 159.71764 162.95807 168.84084 172.08125 179.3961 185.99631 189.23955 193.55965 200.63863 207.71899 214.79936 218.39922 225.4796 234.9594 240.84216 244.0826"
         y="33.611759"
         sodipodi:role="line"
         id="tspan1758">Per-Stream Filtering and Policing [802.1Qci]</tspan><tspan
         x="0 7.6798801 14.639508 17.87994 21.118967 27.839916 35.15897 38.399399 41.639832 44.87886 49.558392 55.91851 59.278282 63.598392 71.038185 75.952187 78.830391 85.670677 88.909706 100.0701 107.02973 110.27016 116.74962 123.10974 130.42879 136.30875 139.3091 143.63341 150.71239 157.79276 164.87312 168.47298 175.55334 183.71339 190.19987 194.5242 201.60036 208.67651 215.75269 222.82884"
         y="50.417641"
         sodipodi:role="line"
         id="tspan1760">Reliability for Time Sync [802.1AS-2020]</tspan></text><path
       d="M 276.66,408.42 H 4.98 V 306.78 h 271.68 z"
       style="fill:#ebf2d9;fill-opacity:1;fill-rule:evenodd;stroke:none"
       id="path1764" /><g
       id="g1766"
       transform="translate(276.7224,408.42)"><path
         d="M 0,0 V -101.64 Z"
         style="fill:none;stroke:#00285f;stroke-width:2.25;stroke-linecap:butt;stroke-linejoin:round;stroke-miterlimit:10;stroke-dasharray:none;stroke-opacity:1"
         id="path1768" /></g><g
       id="g1770"
       transform="translate(276.7224,371.1344)"><path
         d="m 0,0 h 45.218 l 7.269,-15.629"
         style="fill:none;stroke:#00285f;stroke-width:2.25;stroke-linecap:butt;stroke-linejoin:round;stroke-miterlimit:10;stroke-dasharray:none;stroke-opacity:1"
         id="path1772" /></g><g
       id="g1774"
       transform="translate(322.7927,359.966)"><path
         d="M 0,0 6.416,-4.461 7.141,3.32"
         style="fill:none;stroke:#00285f;stroke-width:2.25;stroke-linecap:round;stroke-linejoin:miter;stroke-miterlimit:10;stroke-dasharray:none;stroke-opacity:1"
         id="path1776" /></g><text
       transform="matrix(1,0,0,-1,106.3707,393.606)"
       style="font-variant:normal;font-weight:bold;font-stretch:normal;font-size:18px;font-family:Calibri;-inkscape-font-specification:Calibri-Bold;writing-mode:lr-tb;fill:#00285f;fill-opacity:1;fill-rule:nonzero;stroke:none"
       id="text1780"><tspan
         x="0 8.8794003 13.32 27.954 37.0746 41.034599 48.2346 56.754002 66.473999 74.033997 83.753998 90.115196 99.7146 109.314 113.7546 120.834 129.71519 135.9612 140.40179 150.00121 159.6024"
         y="0"
         sodipodi:role="line"
         id="tspan1778">Time synchronization:</tspan></text><text
       transform="matrix(1,0,0,-1,22.3707,375.726)"
       style="font-variant:normal;font-weight:normal;font-stretch:normal;font-size:14.04px;font-family:Calibri;-inkscape-font-specification:Calibri;writing-mode:lr-tb;fill:#7030a0;fill-opacity:1;fill-rule:nonzero;stroke:none"
       id="text1792"><tspan
         x="0 6.8402882 10.079316 21.241116 24.481548 31.796389 38.395187 41.638428 48.357971 55.672813 62.987652 66.230888 72.711754 79.071877 86.386719 92.269478 99.584312 104.50393 111.94373 119.25857 122.4976 128.01813 134.73767 139.41861 142.65764 150.09883 157.41367 160.65691 164.97702 172.05598 179.13635 186.21674 189.81659 196.89696 205.05701 211.55472 215.87904 222.9552 230.03136 237.10751 244.18369"
         y="0"
         sodipodi:role="line"
         id="tspan1782">Timing and Synchronization [802.1AS-2020]</tspan><tspan
         x="119.39616 123.59693 130.31647 133.5569 140.87596 145.79698 153.23677 157.55688 160.79732 164.03775 170.99738 174.00194 181.44173 185.76184 188.7664 192.24551 199.0858 205.92609 212.76637 216.00681 223.08296 230.15912 237.23529 244.31145"
         y="16.80588"
         sodipodi:role="line"
         id="tspan1784">(a profile of IEEE 1588)</tspan><tspan
         x="94.194359 102.95392 110.39512 115.07465 118.19153 124.67099 129.35193 136.07147 143.38631 150.70114 158.01599 164.37611 167.61514 171.93524 179.13777 186.21674 193.2971 200.37747 203.97733 211.05771 219.21635 225.6972 233.01205 244.17386"
         y="33.611759"
         sodipodi:role="line"
         id="tspan1786">Hot Standby [P802.1ASdm]</tspan><tspan
         x="135.47195 142.31224 150.47229 159.59268 168.47157 171.47614 175.79625 182.99736 190.07352 197.14967 204.22585 207.8257 214.90186 223.0619 229.54137 236.86182 244.18228"
         y="50.417641"
         sodipodi:role="line"
         id="tspan1788">YANG [P802.1ASdn]</tspan><tspan
         x="46.668961 50.150879 57.465721 63.34848 66.588913 73.903755 79.422874 82.663307 89.02343 95.983055 99.342827 106.18311 113.14275 118.06236 129.22417 132.4646 139.77943 147.22063 150.45966 157.89946 164.49966 170.85979 173.86433 178.18445 185.38696 192.46735 199.54631 206.62668 210.22653 217.30692 225.46695 231.94641 239.26126 244.18088"
         y="67.223518"
         sodipodi:role="line"
         id="tspan1790">Inclusive Terminology [P802.1ASdr]</tspan></text><text
       transform="matrix(1,0,0,-1,381.2776,112.624)"
       style="font-variant:normal;font-weight:bold;font-stretch:normal;font-size:18px;font-family:Calibri;-inkscape-font-specification:Calibri-Bold;writing-mode:lr-tb;fill:#00285f;fill-opacity:1;fill-rule:nonzero;stroke:none"
       id="text1798"><tspan
         x="0 8.6400003 17.760599 24.120001 33.84 37.799999 45.360001 55.080002 64.800003 73.319397 82.319397 89.519402 95.760002 100.08 109.6794 119.3994 123.1254 127.566 137.286 144.48599 151.686 155.52541"
         y="0"
         sodipodi:role="line"
         id="tspan1794">Zero congestion loss =</tspan><tspan
         x="19.313999 29.393999 39.113998 48.834 58.554001 68.274002 77.274002 86.875198 90.961197 95.401802 104.283 110.5218 119.5218 129.123 136.683"
         y="21.6"
         sodipodi:role="line"
         id="tspan1796">Bounded latency</tspan></text><g
       id="g1800"
       transform="translate(277.74,116.22)"><path
         d="M 0,0 H 57.016"
         style="fill:none;stroke:#00285f;stroke-width:2.25;stroke-linecap:butt;stroke-linejoin:round;stroke-miterlimit:10;stroke-dasharray:none;stroke-opacity:1"
         id="path1802" /></g><g
       id="g1804"
       transform="translate(328.0065,120.1579)"><path
         d="M 0,0 6.75,-3.938 0,-7.875"
         style="fill:none;stroke:#00285f;stroke-width:2.25;stroke-linecap:round;stroke-linejoin:miter;stroke-miterlimit:10;stroke-dasharray:none;stroke-opacity:1"
         id="path1806" /></g><g
       id="g1808"
       transform="translate(647.9037,113.58)"><path
         d="M 0,0 H -57.016"
         style="fill:none;stroke:#00285f;stroke-width:2.25;stroke-linecap:butt;stroke-linejoin:round;stroke-miterlimit:10;stroke-dasharray:none;stroke-opacity:1"
         id="path1810" /></g><g
       id="g1812"
       transform="translate(597.6373,117.5179)"><path
         d="M 0,0 -6.75,-3.938 0,-7.875"
         style="fill:none;stroke:#00285f;stroke-width:2.25;stroke-linecap:round;stroke-linejoin:miter;stroke-miterlimit:10;stroke-dasharray:none;stroke-opacity:1"
         id="path1814" /></g><g
       id="g1816"><g
         id="g1818"
         clip-path="url(#clipPath1822)"><g
           id="g1824"
           transform="translate(419.76,197.7)"><path
             d="m 0,0 c 0,14.15 44.942,25.62 100.38,25.62 55.438,0 100.38,-11.47 100.38,-25.62 0,-14.15 -44.942,-25.62 -100.38,-25.62 C 44.942,-25.62 0,-14.15 0,0"
             style="fill:#00285f;fill-opacity:1;fill-rule:evenodd;stroke:none"
             id="path1826" /></g><g
           id="g1828"
           transform="translate(419.76,197.7)"><path
             d="m 0,0 c 0,14.15 44.942,25.62 100.38,25.62 55.438,0 100.38,-11.47 100.38,-25.62 0,-14.15 -44.942,-25.62 -100.38,-25.62 C 44.942,-25.62 0,-14.15 0,0 Z"
             style="fill:none;stroke:#181818;stroke-width:1;stroke-linecap:butt;stroke-linejoin:round;stroke-miterlimit:10;stroke-dasharray:none;stroke-opacity:1"
             id="path1830" /></g></g></g><text
       transform="matrix(1,0,0,-1,435.0027,191.7137)"
       style="font-variant:normal;font-weight:normal;font-stretch:normal;font-size:18px;font-family:Calibri;-inkscape-font-specification:Calibri;writing-mode:lr-tb;fill:#ffffff;fill-opacity:1;fill-rule:nonzero;stroke:none"
       id="text1834"><tspan
         x="0 9.7200003 18.719999 25.7994 35.279999 44.758801 50.999401 58.559399 67.559402 71.753403 87.112801 95.7528 105.2334 113.8734 122.3928 131.39281 145.7928 154.7928 164.27341"
         y="0"
         sodipodi:role="line"
         id="tspan1832">Resource Management</tspan></text><path
       d="M 645.42,276.06 H 953.7 V 39.78 H 645.42 Z"
       style="fill:#ebf2d9;fill-opacity:1;fill-rule:evenodd;stroke:none"
       id="path1836" /><g
       id="g1838"
       transform="translate(646.841,276.06)"><path
         d="M 0,0 V -236.28 Z"
         style="fill:none;stroke:#00285f;stroke-width:2.25;stroke-linecap:butt;stroke-linejoin:round;stroke-miterlimit:10;stroke-dasharray:none;stroke-opacity:1"
         id="path1840" /></g><g
       id="g1842"
       transform="translate(646.841,127.9952)"><path
         d="M 0,0 H -39.5 L -62.774,45.989"
         style="fill:none;stroke:#00285f;stroke-width:2.25;stroke-linecap:butt;stroke-linejoin:round;stroke-miterlimit:10;stroke-dasharray:none;stroke-opacity:1"
         id="path1844" /></g><g
       id="g1846"
       transform="translate(583.6021,166.1837)"><path
         d="M 0,0 0.465,7.801 7.026,3.556"
         style="fill:none;stroke:#00285f;stroke-width:2.25;stroke-linecap:round;stroke-linejoin:miter;stroke-miterlimit:10;stroke-dasharray:none;stroke-opacity:1"
         id="path1848" /></g><text
       transform="matrix(1,0,0,-1,651.0268,261.1802)"
       style="font-variant:normal;font-weight:bold;font-stretch:normal;font-size:18px;font-family:Calibri;-inkscape-font-specification:Calibri-Bold;writing-mode:lr-tb;fill:#00285f;fill-opacity:1;fill-rule:nonzero;stroke:none"
       id="text1852"><tspan
         x="0 11.3994 20.52 30.24 34.680599 42.240601 51.119999 57.3606 66.360603 75.959999 80.040604 86.401802 95.5224 102.6018 112.2012 121.8024 128.1618 135.7218 144.7218 151.9218 155.6478 168.36839 172.3284 183.24899 192.8484 197.649"
         y="0"
         sodipodi:role="line"
         id="tspan1850">Dedicated resources &amp; API:</tspan></text><text
       transform="matrix(1,0,0,-1,651.0268,243.3002)"
       style="font-variant:normal;font-weight:normal;font-stretch:normal;font-size:14.04px;font-family:Calibri;-inkscape-font-specification:Calibri;writing-mode:lr-tb;fill:#7030a0;fill-opacity:1;fill-rule:nonzero;stroke:none"
       id="text1880"><tspan
         x="0 6.4794598 11.15478 16.074396 23.038237 29.759184 40.918175 44.035057 51.716339 58.68018 64.199303 71.163147 76.082764 82.442879 89.162422 93.837746 97.078178 104.51797 111.83842 114.95531 122.15502 127.07604 134.51584 139.19116 146.63095 152.51091 159.9507 163.19113 166.19148 170.51158 177.59056 184.67093 191.7513 195.35115 202.43153 211.91133 218.63087 223.3062"
         y="0"
         sodipodi:role="line"
         id="tspan1854">Stream Reservation Protocol [802.1Qat]</tspan><tspan
         x="0 5.879952 9.1203842 16.435225 22.800961 27.12528 30.365711 37.805508 43.685459 50.405003 53.645435 56.765125 64.445007 71.404633 78.004837 81.243866 86.764389 91.443924 96.357925 103.07887 107.75841 110.99883 118.43863 125.75768 128.99812 136.19783 141.11183 148.55162 153.23116 160.67096 166.5509 173.99211 177.23112 180.23569 184.56001 191.63898 198.71935 205.79973 209.39958 216.47855 223.91835 230.3992"
         y="16.80588"
         sodipodi:role="line"
         id="tspan1856">Link-local Registration Protocol [802.1CS]</tspan><tspan
         x="0 6.8402882 13.319748 22.440132 25.318333 32.758129 40.197926 47.512764 51.83287 55.073303 61.672104 68.986946 73.906563 80.62751 85.307037 88.54747 95.987267 103.30211 106.66328 110.98199 118.06236 125.14273 132.22169 135.82297 142.90193 152.38173 158.2645 164.14726"
         y="33.611759"
         sodipodi:role="line"
         id="tspan1858">TSN Configuration [802.1Qcc]</tspan><tspan
         x="0 6.4794598 13.92066 21.2355 28.550341 35.865181 42.586128 47.265659 50.506092 57.945889 65.260727 71.98027 75.219299 78.459732 86.13961 91.059227 94.29966 101.6145 108.21471 115.17433 118.29402 125.13431 133.29436 142.41333 151.29364 154.2982 158.6183 165.69727 172.77765 179.85802 183.45787 190.53824 200.01805 205.90082 213.21565"
         y="50.417641"
         sodipodi:role="line"
         id="tspan1860">Foundational Bridge YANG [802.1Qcp]</tspan><tspan
         x="0 6.8402882 15.000336 24.12072 32.999615 36.004177 40.324284 47.76408 52.685101 55.689659 63.130859 69.610321 81.610306 84.614868 88.934975 96.011139 103.0873 110.16346 113.76331 120.83947 130.31927 136.19923 142.31927"
         y="67.223518"
         sodipodi:role="line"
         id="tspan1862">YANG for CFM [802.1Qcx]</tspan><tspan
         x="0 6.8402882 15.000336 24.112295 32.992596 35.997154 40.321476 47.762676 52.682293 55.686852 61.568207 67.448158 76.086975 83.286682 86.407776 90.727882 97.927597 105.00656 112.08694 119.1673 122.76717 129.84613 138.00618 145.68607 151.56601 158.88647"
         y="84.029404"
         sodipodi:role="line"
         id="tspan1864">YANG for LLDP [P802.1ABcu]</tspan><tspan
         x="0 6.8402882 15.000336 24.12072 32.999615 36.004177 40.324284 47.76408 52.685101 55.689659 62.76582 69.84198 76.918137 80.517998 87.594154 97.073967 104.39442 110.75454 116.16696 125.64677 132.96161 140.27644 145.69308 155.17288 161.05565 167.28661 171.6067 178.80643 185.88258 192.95874 200.0349 203.63475 210.71092 220.19072 226.07068 236.1514"
         y="100.83528"
         sodipodi:role="line"
         id="tspan1866">YANG for 802.1Qbv/Qbu/Qci[P802.1Qcw]</tspan><tspan
         x="0 6.8402882 15.000336 24.12072 32.999615 36.004177 45.604729 48.609287 60.609276 64.08979 71.769669 74.889359 79.209465 86.649261 91.570282 94.44989 100.92935 108.60923 115.44952 123.12939 126.13396 130.45407 137.65518 144.73134 151.8075 158.88367 162.48352 169.55968 177.00087 184.68076 190.56071 196.92082"
         y="117.64116"
         sodipodi:role="line"
         id="tspan1868">YANG &amp; MIB for FRER [P802.1CBcv]</tspan><tspan
         x="0 6.8402882 12.960324 17.639856 24.599483 31.914324 39.229164 46.188793 53.503632 56.982742 63.462204 68.143143 73.062759 80.022385 86.743332 97.905128 101.02201 104.50393 111.81877 118.7784 126.09324 130.77277 134.0132 138.33191 141.57234 147.45509 154.17604 158.85558 162.09601 169.53581 176.85065 180.21042 184.53053 191.73305 198.81201 205.8924 212.97276 216.57262 223.65298 231.09138 238.77266 246.08751 253.40234 257.72244"
         y="134.44704"
         sodipodi:role="line"
         id="tspan1870">Extended Stream Identification [P802.1CBdb] </tspan><tspan
         x="0 7.6798801 14.639508 20.160036 27.599833 34.914673 39.83429 45.717049 52.676678 55.793556 63.953606 67.194038 70.434471 77.874268 83.757027 90.47657 95.156097 98.39653 105.83633 113.15117 116.26805 123.47057 128.39159 135.83139 140.51091 147.95071 153.83347 161.27327 164.5137 167.51405 171.83275 179.03528 186.11424 193.19461 200.27498 203.87485 210.95522 220.43501 227.74986 235.0647"
         y="151.25291"
         sodipodi:role="line"
         id="tspan1872">Resource Allocation Protocol [P802.1Qdd]</tspan><tspan
         x="0 6.8402882 13.319748 22.440132 25.318333 32.758129 40.197926 47.512764 51.83287 55.073303 61.672104 68.986946 73.906563 80.62751 85.307037 88.54747 95.987267 103.30211 106.66328 113.50217 120.81701 128.13185 134.85139 142.16623 148.049 155.00862 166.17043 173.13005 180.44489 185.12582 190.64494 194.12546 198.44557 205.64809 212.72847 219.80743 226.8878 230.48766 237.56804 247.04784 254.36269 257.72244"
         y="168.05881"
         sodipodi:role="line"
         id="tspan1874">TSN Configuration Enhancements [P802.1Qdj]</tspan><tspan
         x="0 5.879952 11.759904 20.40012 27.599833 33.959953 41.040325 44.283566 48.603672 56.043468 60.964489 63.839882 75.839867 83.154709 86.393738 91.074669 94.313698 98.633804 103.55342 110.27437 121.43617 131.63904 140.27925 146.99879 151.67833 158.39928 161.64252 170.64357 177.9584 181.19884 185.87837 191.3989 194.64214 198.96085 206.16336 213.24232 220.32269 227.40308 231.00293 238.0833 246.24194 253.92323 261.23807 268.55292"
         y="184.86469"
         sodipodi:role="line"
         id="tspan1876">LLDPv2 for MultiframeData Units [P802.1ABdh]</tspan><tspan
         x="0 11.999988 19.314829 22.553856 27.234793 30.47382 36.356579 43.07753 48.596653 53.277588 56.63736 63.356903 70.671745 77.986588 81.227013 87.106972 94.546761 100.42953 107.14907 110.3895 113.50638 121.66643 128.98126 136.29611 141.21573 148.17535 153.69588 159.21501 162.33188 170.49193 176.01247 181.53299 184.77202 191.37222 198.68706 209.84886 216.80989 224.12473 228.80566 232.04469 236.36481 243.56732 250.64769 257.72806 264.80844 268.40829 275.48727 282.92706 292.40686"
         y="201.67056"
         sodipodi:role="line"
         id="tspan1878">Multicast and Local Address Assignment [P802.1CQ]</tspan></text><g
       id="g1882"><g
         id="g1884"
         clip-path="url(#clipPath1888)"><g
           id="g1890"
           transform="translate(461.16,298.5)"><path
             d="m 0,0 c 0,14.15 39.3,25.62 87.78,25.62 48.48,0 87.78,-11.47 87.78,-25.62 0,-14.15 -39.3,-25.62 -87.78,-25.62 C 39.3,-25.62 0,-14.15 0,0"
             style="fill:#00285f;fill-opacity:1;fill-rule:evenodd;stroke:none"
             id="path1892" /></g><g
           id="g1894"
           transform="translate(461.16,298.5)"><path
             d="m 0,0 c 0,14.15 39.3,25.62 87.78,25.62 48.48,0 87.78,-11.47 87.78,-25.62 0,-14.15 -39.3,-25.62 -87.78,-25.62 C 39.3,-25.62 0,-14.15 0,0 Z"
             style="fill:none;stroke:#181818;stroke-width:1;stroke-linecap:butt;stroke-linejoin:round;stroke-miterlimit:10;stroke-dasharray:none;stroke-opacity:1"
             id="path1896" /></g></g></g><text
       transform="matrix(1,0,0,-1,513.2189,292.5047)"
       style="font-variant:normal;font-weight:normal;font-stretch:normal;font-size:18px;font-family:Calibri;-inkscape-font-specification:Calibri;writing-mode:lr-tb;fill:#ffffff;fill-opacity:1;fill-rule:nonzero;stroke:none"
       id="text1900"><tspan
         x="0 9.7200003 18.719999 22.8006 26.881201 35.521198 45 49.080601 53.161201 57.241798 63.241199"
         y="0"
         sodipodi:role="line"
         id="tspan1898">Reliability</tspan></text><g
       id="g1902"><g
         id="g1904"
         clip-path="url(#clipPath1908)"><g
           id="g1910"
           transform="translate(297,333.96)"><path
             d="m 0,0 c 0,14.116 42.067,25.56 93.96,25.56 51.893,0 93.96,-11.444 93.96,-25.56 0,-14.116 -42.067,-25.56 -93.96,-25.56 C 42.067,-25.56 0,-14.116 0,0"
             style="fill:#00285f;fill-opacity:1;fill-rule:evenodd;stroke:none"
             id="path1912" /></g><g
           id="g1914"
           transform="translate(297,333.96)"><path
             d="m 0,0 c 0,14.116 42.067,25.56 93.96,25.56 51.893,0 93.96,-11.444 93.96,-25.56 0,-14.116 -42.067,-25.56 -93.96,-25.56 C 42.067,-25.56 0,-14.116 0,0 Z"
             style="fill:none;stroke:#181818;stroke-width:1;stroke-linecap:butt;stroke-linejoin:round;stroke-miterlimit:10;stroke-dasharray:none;stroke-opacity:1"
             id="path1916" /></g></g></g><text
       transform="matrix(1,0,0,-1,332.4472,327.9604)"
       style="font-variant:normal;font-weight:normal;font-stretch:normal;font-size:18px;font-family:Calibri;-inkscape-font-specification:Calibri;writing-mode:lr-tb;fill:#ffffff;fill-opacity:1;fill-rule:nonzero;stroke:none"
       id="text1920"><tspan
         x="0 8.2799997 16.4394 25.92 33.48 42.958801 49.199402 58.6782 68.158798 72.239403 79.318802 87.958801 93.958199 98.038803 107.5176"
         y="0"
         sodipodi:role="line"
         id="tspan1918">Synchronization</tspan></text><path
       d="M 5.76,56.88 H 433.92 V 32.64 H 5.76 Z"
       style="fill:#ebf2d9;fill-opacity:1;fill-rule:evenodd;stroke:none"
       id="path1922" /><text
       transform="matrix(1,0,0,-1,12.9122,40.1648)"
       style="font-variant:normal;font-weight:normal;font-stretch:normal;font-size:14.04px;font-family:Calibri;-inkscape-font-specification:Calibri;writing-mode:lr-tb;fill:#7030a0;fill-opacity:1;fill-rule:nonzero;stroke:none"
       id="text1926"><tspan
         x="0 9.1203842 16.560181 21.239712 28.199341 31.919941 35.039627 43.199677 46.200024 49.679134 56.881657 60.360767 63.604008 66.843033 74.157875 77.401115 81.721222 86.640839 94.080635 101.39548 106.075 109.07536 116.51515 120.83526 123.83421 127.31472 134.3951 141.47406 148.55443 152.15428 159.23466 162.71518 165.95842 169.19885 176.51369 183.82852 187.06895 192.95172 199.67126 204.3522 211.31183 216.83095 220.19212 226.91167 234.22652 237.46976 244.90955 252.22438 258.82458 266.26437 269.50482 276.81967 283.41986 286.66312 293.86563 298.78525 306.22504 309.58481 316.54584 322.42859 327.10812"
         y="0"
         sodipodi:role="line"
         id="tspan1924">Note: A ‘P’ in front of ‘802.1’ indicates an ongoing Project.</tspan></text><path
       d="m 0,435.6 h 960 v 98.76 H 0 Z"
       style="fill:#c9e6ff;fill-opacity:1;fill-rule:nonzero;stroke:none"
       id="path1928" /><text
       transform="matrix(1,0,0,-1,121.25,504.5703)"
       style="font-variant:normal;font-weight:bold;font-stretch:normal;font-size:27.96px;font-family:Calibri;-inkscape-font-specification:Calibri-Bold;writing-mode:lr-tb;fill:#00285f;fill-opacity:1;fill-rule:nonzero;stroke:none"
       id="text1932"><tspan
         x="0 13.801056 20.640072 43.441452 57.48576 66.013557 79.210678 93.246597 108.23316 119.39479 126.245 135.96669 142.81688 156.01401 170.04993 177.00917 195.3705 209.40642 219.12811 240.00864 255.00919 264.96854 278.40891 285.25909 300.24567 313.44559 320.28738 329.04727 342.84552 356.04263 374.40118 383.16104 389.75961 404.63992 414.59927 429.59982 438.47989 445.33011 452.1803 466.21622 477.37787"
         y="0"
         sodipodi:role="line"
         id="tspan1930">Time-Sensitive Networking (TSN) Profiles </tspan></text><text
       transform="matrix(1,0,0,-1,605.09,504.5703)"
       style="font-variant:normal;font-weight:normal;font-stretch:normal;font-size:18px;font-family:Calibri;-inkscape-font-specification:Calibri;writing-mode:lr-tb;fill:#00285f;fill-opacity:1;fill-rule:nonzero;stroke:none"
       id="text1936"><tspan
         x="0 5.4000001 13.68 22.68 26.758801 35.758801 43.318802 49.32 53.3988 62.879398 72.3582 76.798798 85.438797 94.917603 104.3982 108.4842 120.0042 127.0836 136.0836 140.1696 149.65021 155.16901 159.255 168.01559 176.29559 187.9416 192.0276 198.02699 207.5076 216.9864 221.067 228.14639"
         y="0"
         sodipodi:role="line"
         id="tspan1934">(Selection and Use of TSN tools)</tspan></text><path
       d="M 3.6,494.04 H 171.24 V 445.92 H 3.6 Z"
       style="fill:#0062b4;fill-opacity:1;fill-rule:evenodd;stroke:none"
       id="path1938" /><text
       transform="matrix(1,0,0,-1,10.3883,472.3659)"
       style="font-variant:normal;font-weight:normal;font-stretch:normal;font-size:18px;font-family:Calibri;-inkscape-font-specification:Calibri;writing-mode:lr-tb;fill:#ffffff;fill-opacity:1;fill-rule:nonzero;stroke:none"
       id="text1942"><tspan
         x="0 10.44 19.920601 29.399401 33.48 42.958801 47.152802 57.351601 61.432201 70.911003 79.911003 89.391602 93.585602 103.4262 109.665 113.7456 123.2262 131.74561 135.8244 145.30499"
         y="0"
         sodipodi:role="line"
         id="tspan1940">Audio Video Bridging</tspan></text><text
       transform="matrix(1,0,0,-1,32.5883,454.486)"
       style="font-variant:normal;font-weight:normal;font-stretch:normal;font-size:14.04px;font-family:Calibri;-inkscape-font-specification:Calibri;writing-mode:lr-tb;fill:#ffffff;fill-opacity:1;fill-rule:nonzero;stroke:none"
       id="text1950"><tspan
         x="0 4.3201079 11.396268 18.472427 25.548588 29.148443 36.224606 43.905888 52.064533"
         y="0"
         sodipodi:role="line"
         id="tspan1944">[802.1BA/</tspan><tspan
         x="57.479759 65.159637 72.11927 78.479385 81.719818 87.238945 90.479378 97.919174"
         y="0"
         sodipodi:role="line"
         id="tspan1946">Revision</tspan><tspan
         x="105.24384"
         y="0"
         id="tspan1948">]</tspan></text><path
       d="M 174.48,494.16 H 268.8 V 446.04 H 174.48 Z"
       style="fill:#0062b4;fill-opacity:1;fill-rule:evenodd;stroke:none"
       id="path1952" /><text
       transform="matrix(1,0,0,-1,186.0524,472.4819)"
       style="font-variant:normal;font-weight:normal;font-stretch:normal;font-size:18px;font-family:Calibri;-inkscape-font-specification:Calibri;writing-mode:lr-tb;fill:#ffffff;fill-opacity:1;fill-rule:nonzero;stroke:none"
       id="text1956"><tspan
         x="0 8.2799997 14.5206 23.999399 33.48 39.479401 48.959999 57.599998 67.078796"
         y="0"
         sodipodi:role="line"
         id="tspan1954">Fronthaul</tspan></text><text
       transform="matrix(1,0,0,-1,181.7324,454.6019)"
       style="font-variant:normal;font-weight:normal;font-stretch:normal;font-size:14.04px;font-family:Calibri;-inkscape-font-specification:Calibri;writing-mode:lr-tb;fill:#ffffff;fill-opacity:1;fill-rule:nonzero;stroke:none"
       id="text1960"><tspan
         x="0 4.3201079 11.396268 18.472427 25.548588 29.148443 36.224606 43.665806 55.68264 61.082424 68.402878 75.366722"
         y="0"
         sodipodi:role="line"
         id="tspan1958">[802.1CM/de]</tspan></text><path
       d="m 272.04,493.92 h 175.2 V 445.8 h -175.2 z"
       style="fill:#0062b4;fill-opacity:1;fill-rule:evenodd;stroke:none"
       id="path1962" /><text
       transform="matrix(1,0,0,-1,279.2202,472.25)"
       style="font-variant:normal;font-weight:normal;font-stretch:normal;font-size:18px;font-family:Calibri;-inkscape-font-specification:Calibri;writing-mode:lr-tb;fill:#ffffff;fill-opacity:1;fill-rule:nonzero;stroke:none"
       id="text1966"><tspan
         x="0 4.5539999 14.0346 23.5152 32.993999 40.073399 46.0746 52.3134 56.394001 65.033997 69.112801 73.198799 83.638802 93.117599 99.118797 108.5976 122.9976 131.6376 137.63699 141.71761 151.1982"
         y="0"
         sodipodi:role="line"
         id="tspan1964">Industrial Automation</tspan></text><text
       transform="matrix(1,0,0,-1,312.3402,454.37)"
       style="font-variant:normal;font-weight:normal;font-stretch:normal;font-size:14.04px;font-family:Calibri;-inkscape-font-specification:Calibri;writing-mode:lr-tb;fill:#ffffff;fill-opacity:1;fill-rule:nonzero;stroke:none"
       id="text1974"><tspan
         x="0"
         y="0"
         id="tspan1968">[</tspan><tspan
         x="4.3243198 7.8048358 14.645124 22.086325 27.486109 30.966623 37.806911 44.645798 51.486084 54.729324 61.805485 68.881645 75.957802 83.033966"
         y="0"
         sodipodi:role="line"
         id="tspan1970">IEC/IEEE 60802</tspan><tspan
         x="90.110123"
         y="0"
         id="tspan1972">]</tspan></text><path
       d="M 450.48,493.8 H 631.8 V 445.68 H 450.48 Z"
       style="fill:#0062b4;fill-opacity:1;fill-rule:evenodd;stroke:none"
       id="path1976" /><text
       transform="matrix(1,0,0,-1,459.2263,473.334)"
       style="font-variant:normal;font-weight:normal;font-stretch:normal;font-size:18px;font-family:Calibri;-inkscape-font-specification:Calibri;writing-mode:lr-tb;fill:#ffffff;fill-opacity:1;fill-rule:nonzero;stroke:none"
       id="text1980"><tspan
         x="0 10.44 19.920601 25.92 35.3988 49.798801 59.2794 65.278801 69.359398 77.513397 86.513397 90.599403 95.153397 104.634 110.16 120.3606 129.3606 138.8394 142.92 150.48 154.56059"
         y="0"
         sodipodi:role="line"
         id="tspan1978">Automotive In-Vehicle</tspan></text><text
       transform="matrix(1,0,0,-1,508.0663,453.534)"
       style="font-variant:normal;font-weight:normal;font-stretch:normal;font-size:15.96px;font-family:Calibri;-inkscape-font-specification:Calibri;writing-mode:lr-tb;fill:#ffffff;fill-opacity:1;fill-rule:nonzero;stroke:none"
       id="text1984"><tspan
         x="0"
         y="0"
         id="tspan1982">[</tspan></text><text
       transform="matrix(1,0,0,-1,512.9863,453.534)"
       style="font-variant:normal;font-weight:normal;font-stretch:normal;font-size:14.04px;font-family:Calibri;-inkscape-font-specification:Calibri;writing-mode:lr-tb;fill:#ffffff;fill-opacity:1;fill-rule:nonzero;stroke:none"
       id="text1990"><tspan
         x="0 7.1997118 14.275872 21.352032 28.428192 32.028049 39.10421 47.744423"
         y="0"
         sodipodi:role="line"
         id="tspan1986">P802.1DG</tspan><tspan
         x="56.63736"
         y="0"
         id="tspan1988">]</tspan></text><path
       d="m 634.92,494.28 h 133.32 v -48 H 634.92 Z"
       style="fill:#0062b4;fill-opacity:1;fill-rule:evenodd;stroke:none"
       id="path1992" /><text
       transform="matrix(1,0,0,-1,642.3079,472.6558)"
       style="font-variant:normal;font-weight:normal;font-stretch:normal;font-size:18px;font-family:Calibri;-inkscape-font-specification:Calibri;writing-mode:lr-tb;fill:#ffffff;fill-opacity:1;fill-rule:nonzero;stroke:none"
       id="text1996"><tspan
         x="0 8.2799997 17.280001 23.520599 31.68 35.760601 43.320599 52.320599 56.514599 65.753998 71.994598 81.475197 89.634598 93.715202 103.2012 112.2012"
         y="0"
         sodipodi:role="line"
         id="tspan1994">Service Provider</tspan></text><text
       transform="matrix(1,0,0,-1,670.1478,454.7758)"
       style="font-variant:normal;font-weight:normal;font-stretch:normal;font-size:14.04px;font-family:Calibri;-inkscape-font-specification:Calibri;writing-mode:lr-tb;fill:#ffffff;fill-opacity:1;fill-rule:nonzero;stroke:none"
       id="text2004"><tspan
         x="0"
         y="0"
         id="tspan1998">[</tspan><tspan
         x="4.3243198 11.524032 18.600191 25.676352 32.752514 36.352367 43.428528 52.068745"
         y="0"
         sodipodi:role="line"
         id="tspan2000">P802.1DF</tspan><tspan
         x="58.560841"
         y="0"
         id="tspan2002">]</tspan></text><path
       d="m 771.48,494.4 h 184.2 v -48 h -184.2 z"
       style="fill:#0062b4;fill-opacity:1;fill-rule:evenodd;stroke:none"
       id="path2006" /><text
       transform="matrix(1,0,0,-1,790.6384,472.7719)"
       style="font-variant:normal;font-weight:normal;font-stretch:normal;font-size:18px;font-family:Calibri;-inkscape-font-specification:Calibri;writing-mode:lr-tb;fill:#ffffff;fill-opacity:1;fill-rule:nonzero;stroke:none"
       id="text2010"><tspan
         x="0 10.44 19.440001 25.680599 35.159401 42.2388 51.719398 60.359402 67.919403 76.919403 81.005402 92.885399 102.366 111.8448 121.3254 129.96539 136.20599"
         y="0"
         sodipodi:role="line"
         id="tspan2008">Aerospace Onboard</tspan></text><text
       transform="matrix(1,0,0,-1,778.5184,454.8918)"
       style="font-variant:normal;font-weight:normal;font-stretch:normal;font-size:14.04px;font-family:Calibri;-inkscape-font-specification:Calibri;writing-mode:lr-tb;fill:#ffffff;fill-opacity:1;fill-rule:nonzero;stroke:none"
       id="text2018"><tspan
         x="0"
         y="0"
         id="tspan2012">[</tspan><tspan
         x="4.3243198 7.8048358 14.645124 21.484009 28.324297 31.441175 38.640888 45.717049 52.793209 59.86937 63.470627 70.546791 79.187004 86.386719 89.747894 95.147675 98.264557 104.74542 112.90547 119.74576 122.75031 130.91037 137.39124 144.46739 151.54355 158.61971"
         y="0"
         sodipodi:role="line"
         id="tspan2014">IEEE P802.1DP / SAE AS6675</tspan><tspan
         x="165.69586"
         y="0"
         id="tspan2016">]</tspan></text><path
       d="M 4.32,26.76 H 480.84 V 1.2 H 4.32 Z"
       style="fill:#ffffff;fill-opacity:1;fill-rule:evenodd;stroke:none"
       id="path2020" /><text
       transform="matrix(1,0,0,-1,9.9665,10.8992)"
       style="font-variant:normal;font-weight:normal;font-stretch:normal;font-size:14.04px;font-family:Calibri;-inkscape-font-specification:Calibri;writing-mode:lr-tb;fill:#000000;fill-opacity:1;fill-rule:nonzero;stroke:none"
       id="text2024"><tspan
         x="0 11.999988 19.441189 24.12072 31.081753 34.198631 41.639832 48.958885"
         y="0"
         sodipodi:role="line"
         id="tspan2022">More on </tspan></text><text
       transform="matrix(1,0,0,-1,62.0465,10.8992)"
       style="font-variant:normal;font-weight:normal;font-stretch:normal;font-size:14.04px;font-family:Calibri;-inkscape-font-specification:Calibri;writing-mode:lr-tb;fill:#0563c1;fill-opacity:1;fill-rule:nonzero;stroke:none"
       id="text2028"><tspan
         x="0 6.7195439 13.200408 22.319387 25.323948 30.723732 35.283924 42.003468 49.31831 56.633148 63.352692 68.032227 75.347061"
         y="0"
         sodipodi:role="line"
         id="tspan2026">TSN standards</tspan></text><path
       d="m 62.047,8.379 h 80.879 v 0.96 H 62.047 Z"
       style="fill:#0563c1;fill-opacity:1;fill-rule:nonzero;stroke:none"
       id="path2030" /><text
       transform="matrix(1,0,0,-1,146.1665,10.8992)"
       style="font-variant:normal;font-weight:normal;font-stretch:normal;font-size:14.04px;font-family:Calibri;-inkscape-font-specification:Calibri;writing-mode:lr-tb;fill:#000000;fill-opacity:1;fill-rule:nonzero;stroke:none"
       id="text2034"><tspan
         x="0 6.7195439 14.034384 21.349224"
         y="0"
         sodipodi:role="line"
         id="tspan2032">and </tspan></text><text
       transform="matrix(1,0,0,-1,170.7664,10.8992)"
       style="font-variant:normal;font-weight:normal;font-stretch:normal;font-size:14.04px;font-family:Calibri;-inkscape-font-specification:Calibri;writing-mode:lr-tb;fill:#0563c1;fill-opacity:1;fill-rule:nonzero;stroke:none"
       id="text2038"><tspan
         x="0 7.439796 14.754636 21.234097 28.673891 31.914324 39.229164 45.827965 49.071205 56.386044 61.065575 68.505371 71.865143 78.82618 84.708939 89.388466"
         y="0"
         sodipodi:role="line"
         id="tspan2036">ongoing projects</tspan></text><path
       d="m 170.767,8.379 h 94.919 v 0.96 h -94.919 z"
       style="fill:#0563c1;fill-opacity:1;fill-rule:nonzero;stroke:none"
       id="path2040" /><text
       transform="matrix(1,0,0,-1,268.9265,10.8992)"
       style="font-variant:normal;font-weight:normal;font-stretch:normal;font-size:14.04px;font-family:Calibri;-inkscape-font-specification:Calibri;writing-mode:lr-tb;fill:#000000;fill-opacity:1;fill-rule:nonzero;stroke:none"
       id="text2044"><tspan
         x="0 6.5988002 11.278332 14.998932"
         y="0"
         sodipodi:role="line"
         id="tspan2042">at: </tspan></text><text
       transform="matrix(1,0,0,-1,287.1664,10.8992)"
       style="font-variant:normal;font-weight:normal;font-stretch:normal;font-size:14.04px;font-family:Calibri;-inkscape-font-specification:Calibri;writing-mode:lr-tb;fill:#0563c1;fill-opacity:1;fill-rule:nonzero;stroke:none"
       id="text2048"><tspan
         x="0 7.1997118 11.640564 16.315884 23.515596 29.036123 32.755322 38.155106 43.55489 53.635609 63.716328 72.956055 76.555908 79.796341 86.760178 93.724022 100.68786 107.76823 114.8486 121.92757 125.52883 132.96863 137.64816 144.72853 150.12831 157.20869 162.60847 167.2838 172.80432"
         y="0"
         sodipodi:role="line"
         id="tspan2046">https://www.ieee802.org/1/tsn</tspan></text><g
       id="g2050"
       transform="translate(377.226,9.3393)"><path
         d="M 0,0 H -90.059 V -0.96 H 0 90.06 V 0 Z"
         style="fill:#0563c1;fill-opacity:1;fill-rule:nonzero;stroke:none"
         id="path2052" /></g></g></svg>
